<?xml version="1.0" encoding="UTF-8" standalone="no"?><!DOCTYPE svg PUBLIC "-//W3C//DTD SVG 1.1//EN" "http://www.w3.org/Graphics/SVG/1.1/DTD/svg11.dtd"><!-- Generated by graphviz version 2.40.1 (20161225.0304)
 --><!-- Title: scalar_computational_graph Pages: 1 --><svg xmlns="http://www.w3.org/2000/svg" xmlns:xlink="http://www.w3.org/1999/xlink" width="893pt" height="324pt" viewBox="0.00 0.00 892.81 323.80">
<g id="graph0" class="graph" transform="scale(1 1) rotate(0) translate(14.4 309.4)">
<title>scalar_computational_graph</title>
<polygon fill="#ffffff" stroke="transparent" points="-14.4,14.4 -14.4,-309.4 878.41,-309.4 878.41,14.4 -14.4,14.4"/>
<!-- input -->
<g id="node1" class="node">
<title>input</title>
<path fill="#cfe8ff" stroke="transparent" d="M46.6712,-295C46.6712,-295 16.6712,-295 16.6712,-295 10.6712,-295 4.6712,-289 4.6712,-283 4.6712,-283 4.6712,-271 4.6712,-271 4.6712,-265 10.6712,-259 16.6712,-259 16.6712,-259 46.6712,-259 46.6712,-259 52.6712,-259 58.6712,-265 58.6712,-271 58.6712,-271 58.6712,-283 58.6712,-283 58.6712,-289 52.6712,-295 46.6712,-295"/>
<text text-anchor="middle" x="31.6712" y="-273.4" font-family="Helvetica,sans-Serif" font-size="12.00" fill="#000000">Input</text>
</g>
<!-- matmul1 -->
<g id="node9" class="node">
<title>matmul1</title>
<path fill="#ffd8a8" stroke="transparent" d="M163.3424,-236C163.3424,-236 133.3424,-236 133.3424,-236 127.3424,-236 121.3424,-230 121.3424,-224 121.3424,-224 121.3424,-212 121.3424,-212 121.3424,-206 127.3424,-200 133.3424,-200 133.3424,-200 163.3424,-200 163.3424,-200 169.3424,-200 175.3424,-206 175.3424,-212 175.3424,-212 175.3424,-224 175.3424,-224 175.3424,-230 169.3424,-236 163.3424,-236"/>
<text text-anchor="middle" x="148.3424" y="-214.4" font-family="Helvetica,sans-Serif" font-size="12.00" fill="#000000">Mul</text>
</g>
<!-- input&#45;&gt;matmul1 -->
<g id="edge1" class="edge">
<title>input-&gt;matmul1</title>
<path fill="none" stroke="#555555" d="M51.4629,-258.8761C68.6355,-247.6508 93.8742,-234.3776 114.2858,-225.5763"/>
<polygon fill="#555555" stroke="#555555" points="115.4879,-227.7294 121.0043,-222.7724 113.6007,-223.2074 115.4879,-227.7294"/>
</g>
<!-- w1 -->
<g id="node2" class="node">
<title>w1</title>
<path fill="#cfe8ff" stroke="transparent" d="M51.5145,-230C51.5145,-230 11.8279,-230 11.8279,-230 5.8279,-230 -.1721,-224 -.1721,-218 -.1721,-218 -.1721,-206 -.1721,-206 -.1721,-200 5.8279,-194 11.8279,-194 11.8279,-194 51.5145,-194 51.5145,-194 57.5145,-194 63.5145,-200 63.5145,-206 63.5145,-206 63.5145,-218 63.5145,-218 63.5145,-224 57.5145,-230 51.5145,-230"/>
<text text-anchor="middle" x="31.6712" y="-208.4" font-family="Helvetica,sans-Serif" font-size="12.00" fill="#000000">Weight 1</text>
</g>
<!-- w1&#45;&gt;matmul1 -->
<g id="edge2" class="edge">
<title>w1-&gt;matmul1</title>
<path fill="none" stroke="#555555" d="M63.5521,-204.1649C79.2324,-203.6681 98.1479,-204.5799 114.1307,-206.5831"/>
<polygon fill="#555555" stroke="#555555" points="113.9736,-209.035 121.2457,-207.5792 114.653,-204.1823 113.9736,-209.035"/>
</g>
<!-- b1 -->
<g id="node3" class="node">
<title>b1</title>
<path fill="#cfe8ff" stroke="transparent" d="M46.6712,-160C46.6712,-160 16.6712,-160 16.6712,-160 10.6712,-160 4.6712,-154 4.6712,-148 4.6712,-148 4.6712,-136 4.6712,-136 4.6712,-130 10.6712,-124 16.6712,-124 16.6712,-124 46.6712,-124 46.6712,-124 52.6712,-124 58.6712,-130 58.6712,-136 58.6712,-136 58.6712,-148 58.6712,-148 58.6712,-154 52.6712,-160 46.6712,-160"/>
<text text-anchor="middle" x="31.6712" y="-138.4" font-family="Helvetica,sans-Serif" font-size="12.00" fill="#000000">Bias 1</text>
</g>
<!-- add1 -->
<g id="node10" class="node">
<title>add1</title>
<path fill="#ffd8a8" stroke="transparent" d="M275.3424,-198C275.3424,-198 245.3424,-198 245.3424,-198 239.3424,-198 233.3424,-192 233.3424,-186 233.3424,-186 233.3424,-174 233.3424,-174 233.3424,-168 239.3424,-162 245.3424,-162 245.3424,-162 275.3424,-162 275.3424,-162 281.3424,-162 287.3424,-168 287.3424,-174 287.3424,-174 287.3424,-186 287.3424,-186 287.3424,-192 281.3424,-198 275.3424,-198"/>
<text text-anchor="middle" x="260.3424" y="-176.4" font-family="Helvetica,sans-Serif" font-size="12.00" fill="#000000">Add</text>
</g>
<!-- b1&#45;&gt;add1 -->
<g id="edge4" class="edge">
<title>b1-&gt;add1</title>
<path fill="none" stroke="#555555" d="M58.8008,-139.4235C100.5757,-142.0421 180.5904,-155.1202 226.2296,-166.591"/>
<polygon fill="#555555" stroke="#555555" points="225.8568,-169.0255 233.2481,-168.4164 227.0902,-164.2833 225.8568,-169.0255"/>
</g>
<!-- relu -->
<g id="node4" class="node">
<title>relu</title>
<path fill="#ffd8a8" stroke="transparent" d="M392.0136,-198C392.0136,-198 362.0136,-198 362.0136,-198 356.0136,-198 350.0136,-192 350.0136,-186 350.0136,-186 350.0136,-174 350.0136,-174 350.0136,-168 356.0136,-162 362.0136,-162 362.0136,-162 392.0136,-162 392.0136,-162 398.0136,-162 404.0136,-168 404.0136,-174 404.0136,-174 404.0136,-186 404.0136,-186 404.0136,-192 398.0136,-198 392.0136,-198"/>
<text text-anchor="middle" x="377.0136" y="-176.4" font-family="Helvetica,sans-Serif" font-size="12.00" fill="#000000">ReLU</text>
</g>
<!-- matmul2 -->
<g id="node7" class="node">
<title>matmul2</title>
<path fill="#ffd8a8" stroke="transparent" d="M508.6848,-139C508.6848,-139 478.6848,-139 478.6848,-139 472.6848,-139 466.6848,-133 466.6848,-127 466.6848,-127 466.6848,-115 466.6848,-115 466.6848,-109 472.6848,-103 478.6848,-103 478.6848,-103 508.6848,-103 508.6848,-103 514.6848,-103 520.6848,-109 520.6848,-115 520.6848,-115 520.6848,-127 520.6848,-127 520.6848,-133 514.6848,-139 508.6848,-139"/>
<text text-anchor="middle" x="493.6848" y="-117.4" font-family="Helvetica,sans-Serif" font-size="12.00" fill="#000000">Mul</text>
</g>
<!-- relu&#45;&gt;matmul2 -->
<g id="edge6" class="edge">
<title>relu-&gt;matmul2</title>
<path fill="none" stroke="#555555" d="M396.8053,-161.8761C413.9779,-150.6508 439.2166,-137.3776 459.6282,-128.5763"/>
<polygon fill="#555555" stroke="#555555" points="460.8303,-130.7294 466.3467,-125.7724 458.9431,-126.2074 460.8303,-130.7294"/>
</g>
<!-- relu&#45;&gt;add1 -->
<g id="edge19" class="edge">
<title>relu-&gt;add1</title>
<path fill="none" stroke="#ff0000" d="M349.6962,-189.6967C333.273,-191.5172 312.2245,-191.7375 294.6822,-190.3574"/>
<polygon fill="#ff0000" stroke="#ff0000" points="294.6022,-187.889 287.4024,-189.668 294.1402,-192.7671 294.6022,-187.889"/>
</g>
<!-- w2 -->
<g id="node5" class="node">
<title>w2</title>
<path fill="#cfe8ff" stroke="transparent" d="M396.8569,-133C396.8569,-133 357.1703,-133 357.1703,-133 351.1703,-133 345.1703,-127 345.1703,-121 345.1703,-121 345.1703,-109 345.1703,-109 345.1703,-103 351.1703,-97 357.1703,-97 357.1703,-97 396.8569,-97 396.8569,-97 402.8569,-97 408.8569,-103 408.8569,-109 408.8569,-109 408.8569,-121 408.8569,-121 408.8569,-127 402.8569,-133 396.8569,-133"/>
<text text-anchor="middle" x="377.0136" y="-111.4" font-family="Helvetica,sans-Serif" font-size="12.00" fill="#000000">Weight 2</text>
</g>
<!-- w2&#45;&gt;matmul2 -->
<g id="edge7" class="edge">
<title>w2-&gt;matmul2</title>
<path fill="none" stroke="#555555" d="M408.8945,-107.1649C424.5748,-106.6681 443.4903,-107.5799 459.4731,-109.5831"/>
<polygon fill="#555555" stroke="#555555" points="459.316,-112.035 466.5881,-110.5792 459.9954,-107.1823 459.316,-112.035"/>
</g>
<!-- b2 -->
<g id="node6" class="node">
<title>b2</title>
<path fill="#cfe8ff" stroke="transparent" d="M392.0136,-63C392.0136,-63 362.0136,-63 362.0136,-63 356.0136,-63 350.0136,-57 350.0136,-51 350.0136,-51 350.0136,-39 350.0136,-39 350.0136,-33 356.0136,-27 362.0136,-27 362.0136,-27 392.0136,-27 392.0136,-27 398.0136,-27 404.0136,-33 404.0136,-39 404.0136,-39 404.0136,-51 404.0136,-51 404.0136,-57 398.0136,-63 392.0136,-63"/>
<text text-anchor="middle" x="377.0136" y="-41.4" font-family="Helvetica,sans-Serif" font-size="12.00" fill="#000000">Bias 2</text>
</g>
<!-- add2 -->
<g id="node11" class="node">
<title>add2</title>
<path fill="#ffd8a8" stroke="transparent" d="M620.6848,-101C620.6848,-101 590.6848,-101 590.6848,-101 584.6848,-101 578.6848,-95 578.6848,-89 578.6848,-89 578.6848,-77 578.6848,-77 578.6848,-71 584.6848,-65 590.6848,-65 590.6848,-65 620.6848,-65 620.6848,-65 626.6848,-65 632.6848,-71 632.6848,-77 632.6848,-77 632.6848,-89 632.6848,-89 632.6848,-95 626.6848,-101 620.6848,-101"/>
<text text-anchor="middle" x="605.6848" y="-79.4" font-family="Helvetica,sans-Serif" font-size="12.00" fill="#000000">Add</text>
</g>
<!-- b2&#45;&gt;add2 -->
<g id="edge9" class="edge">
<title>b2-&gt;add2</title>
<path fill="none" stroke="#555555" d="M404.1432,-42.4235C445.9181,-45.0421 525.9328,-58.1202 571.572,-69.591"/>
<polygon fill="#555555" stroke="#555555" points="571.1992,-72.0255 578.5905,-71.4164 572.4326,-67.2833 571.1992,-72.0255"/>
</g>
<!-- matmul2&#45;&gt;relu -->
<g id="edge17" class="edge">
<title>matmul2-&gt;relu</title>
<path fill="none" stroke="#ff0000" d="M474.7774,-139.113C457.4767,-150.728 431.4786,-164.458 410.6403,-173.2954"/>
<polygon fill="#ff0000" stroke="#ff0000" points="409.6234,-171.0643 404.0736,-175.9839 411.48,-175.599 409.6234,-171.0643"/>
</g>
<!-- matmul2&#45;&gt;w2 -->
<g id="edge18" class="edge">
<title>matmul2-&gt;w2</title>
<path fill="none" stroke="#ff0000" d="M466.5881,-129.2786C451.5136,-130.1919 432.4916,-129.547 415.8584,-127.6699"/>
<polygon fill="#ff0000" stroke="#ff0000" points="416.1463,-125.2369 408.8945,-126.7909 415.5326,-130.0983 416.1463,-125.2369"/>
</g>
<!-- matmul2&#45;&gt;add2 -->
<g id="edge8" class="edge">
<title>matmul2-&gt;add2</title>
<path fill="none" stroke="#555555" d="M520.2272,-102.9102C535.6228,-96.0532 555.171,-89.2009 571.6844,-84.7919"/>
<polygon fill="#555555" stroke="#555555" points="572.3666,-87.1467 578.5549,-83.059 571.1682,-82.3955 572.3666,-87.1467"/>
</g>
<!-- loss -->
<g id="node8" class="node">
<title>loss</title>
<path fill="#cfe8ff" stroke="transparent" d="M852.01,-101C852.01,-101 822.01,-101 822.01,-101 816.01,-101 810.01,-95 810.01,-89 810.01,-89 810.01,-77 810.01,-77 810.01,-71 816.01,-65 822.01,-65 822.01,-65 852.01,-65 852.01,-65 858.01,-65 864.01,-71 864.01,-77 864.01,-77 864.01,-89 864.01,-89 864.01,-95 858.01,-101 852.01,-101"/>
<text text-anchor="middle" x="837.01" y="-79.4" font-family="Helvetica,sans-Serif" font-size="12.00" fill="#000000">Loss</text>
</g>
<!-- criterion -->
<g id="node12" class="node">
<title>criterion</title>
<path fill="#ffd8a8" stroke="transparent" d="M740.1735,-101C740.1735,-101 702.5213,-101 702.5213,-101 696.5213,-101 690.5213,-95 690.5213,-89 690.5213,-89 690.5213,-77 690.5213,-77 690.5213,-71 696.5213,-65 702.5213,-65 702.5213,-65 740.1735,-65 740.1735,-65 746.1735,-65 752.1735,-71 752.1735,-77 752.1735,-77 752.1735,-89 752.1735,-89 752.1735,-95 746.1735,-101 740.1735,-101"/>
<text text-anchor="middle" x="721.3474" y="-79.4" font-family="Helvetica,sans-Serif" font-size="12.00" fill="#000000">Criterion</text>
</g>
<!-- loss&#45;&gt;criterion -->
<g id="edge13" class="edge">
<title>loss-&gt;criterion</title>
<path fill="none" stroke="#ff0000" d="M809.73,-92.7188C794.7149,-94.382 775.8454,-94.6903 759.4013,-93.6436"/>
<polygon fill="#ff0000" stroke="#ff0000" points="759.2091,-91.1712 752.0392,-93.0674 758.8266,-96.0562 759.2091,-91.1712"/>
</g>
<!-- matmul1&#45;&gt;input -->
<g id="edge22" class="edge">
<title>matmul1-&gt;input</title>
<path fill="none" stroke="#ff0000" d="M129.435,-236.113C112.1343,-247.728 86.1362,-261.458 65.2979,-270.2954"/>
<polygon fill="#ff0000" stroke="#ff0000" points="64.281,-268.0643 58.7312,-272.9839 66.1376,-272.599 64.281,-268.0643"/>
</g>
<!-- matmul1&#45;&gt;w1 -->
<g id="edge23" class="edge">
<title>matmul1-&gt;w1</title>
<path fill="none" stroke="#ff0000" d="M121.2457,-226.2786C106.1712,-227.1919 87.1492,-226.547 70.516,-224.6699"/>
<polygon fill="#ff0000" stroke="#ff0000" points="70.8039,-222.2369 63.5521,-223.7909 70.1902,-227.0983 70.8039,-222.2369"/>
</g>
<!-- matmul1&#45;&gt;add1 -->
<g id="edge3" class="edge">
<title>matmul1-&gt;add1</title>
<path fill="none" stroke="#555555" d="M174.8848,-199.9102C190.2804,-193.0532 209.8286,-186.2009 226.342,-181.7919"/>
<polygon fill="#555555" stroke="#555555" points="227.0242,-184.1467 233.2125,-180.059 225.8258,-179.3955 227.0242,-184.1467"/>
</g>
<!-- add1&#45;&gt;b1 -->
<g id="edge21" class="edge">
<title>add1-&gt;b1</title>
<path fill="none" stroke="#ff0000" d="M233.2481,-183.0845C191.4948,-180.7808 111.4812,-167.7209 65.8226,-155.9718"/>
<polygon fill="#ff0000" stroke="#ff0000" points="66.1957,-153.5357 58.8008,-154.0992 64.9331,-158.2702 66.1957,-153.5357"/>
</g>
<!-- add1&#45;&gt;relu -->
<g id="edge5" class="edge">
<title>add1-&gt;relu</title>
<path fill="none" stroke="#555555" d="M287.4024,-170.9766C303.777,-169.2618 324.8194,-169.0406 342.3982,-170.313"/>
<polygon fill="#555555" stroke="#555555" points="342.5097,-172.782 349.6962,-170.9498 342.9357,-167.9005 342.5097,-172.782"/>
</g>
<!-- add1&#45;&gt;matmul1 -->
<g id="edge20" class="edge">
<title>add1-&gt;matmul1</title>
<path fill="none" stroke="#ff0000" d="M235.3947,-198.009C219.8318,-205.2023 199.5899,-212.3737 182.5422,-216.8518"/>
<polygon fill="#ff0000" stroke="#ff0000" points="181.665,-214.5446 175.4545,-218.5983 182.8374,-219.3023 181.665,-214.5446"/>
</g>
<!-- add2&#45;&gt;b2 -->
<g id="edge16" class="edge">
<title>add2-&gt;b2</title>
<path fill="none" stroke="#ff0000" d="M578.5905,-86.0845C536.8372,-83.7808 456.8236,-70.7209 411.165,-58.9718"/>
<polygon fill="#ff0000" stroke="#ff0000" points="411.5381,-56.5357 404.1432,-57.0992 410.2755,-61.2702 411.5381,-56.5357"/>
</g>
<!-- add2&#45;&gt;matmul2 -->
<g id="edge15" class="edge">
<title>add2-&gt;matmul2</title>
<path fill="none" stroke="#ff0000" d="M580.7371,-101.009C565.1742,-108.2023 544.9323,-115.3737 527.8846,-119.8518"/>
<polygon fill="#ff0000" stroke="#ff0000" points="527.0074,-117.5446 520.7969,-121.5983 528.1798,-122.3023 527.0074,-117.5446"/>
</g>
<!-- add2&#45;&gt;criterion -->
<g id="edge10" class="edge">
<title>add2-&gt;criterion</title>
<path fill="none" stroke="#555555" d="M632.8025,-73.946C647.7413,-72.3896 666.5321,-72.0896 682.9557,-73.0461"/>
<polygon fill="#555555" stroke="#555555" points="683.1553,-75.5166 690.3127,-73.5739 683.506,-70.6292 683.1553,-75.5166"/>
</g>
<!-- criterion&#45;&gt;loss -->
<g id="edge12" class="edge">
<title>criterion-&gt;loss</title>
<path fill="none" stroke="#555555" d="M752.0392,-73.6037C767.593,-72.2396 786.534,-72.1399 802.5825,-73.3049"/>
<polygon fill="#555555" stroke="#555555" points="802.5434,-75.7607 809.73,-73.9291 802.9698,-70.8793 802.5434,-75.7607"/>
</g>
<!-- criterion&#45;&gt;add2 -->
<g id="edge14" class="edge">
<title>criterion-&gt;add2</title>
<path fill="none" stroke="#ff0000" d="M690.3127,-93.0994C674.7601,-94.5365 655.8878,-94.6274 639.915,-93.3722"/>
<polygon fill="#ff0000" stroke="#ff0000" points="640.0019,-90.9196 632.8025,-92.7008 639.5413,-95.7979 640.0019,-90.9196"/>
</g>
<!-- label -->
<g id="node13" class="node">
<title>label</title>
<path fill="#cfe8ff" stroke="transparent" d="M620.6848,-36C620.6848,-36 590.6848,-36 590.6848,-36 584.6848,-36 578.6848,-30 578.6848,-24 578.6848,-24 578.6848,-12 578.6848,-12 578.6848,-6 584.6848,0 590.6848,0 590.6848,0 620.6848,0 620.6848,0 626.6848,0 632.6848,-6 632.6848,-12 632.6848,-12 632.6848,-24 632.6848,-24 632.6848,-30 626.6848,-36 620.6848,-36"/>
<text text-anchor="middle" x="605.6848" y="-14.4" font-family="Helvetica,sans-Serif" font-size="12.00" fill="#000000">Label</text>
</g>
<!-- label&#45;&gt;criterion -->
<g id="edge11" class="edge">
<title>label-&gt;criterion</title>
<path fill="none" stroke="#555555" d="M632.8025,-33.2396C648.0105,-41.7862 667.2105,-52.5762 683.8411,-61.9222"/>
<polygon fill="#555555" stroke="#555555" points="683.01,-64.2655 690.3127,-65.5592 685.4107,-59.9939 683.01,-64.2655"/>
</g>
</g>
</svg>