<?xml version="1.0" encoding="UTF-8" standalone="no"?><!DOCTYPE svg PUBLIC "-//W3C//DTD SVG 1.1//EN" "http://www.w3.org/Graphics/SVG/1.1/DTD/svg11.dtd"><!-- Generated by graphviz version 2.40.1 (20161225.0304)
 --><!-- Title: computational_graph Pages: 1 --><svg xmlns="http://www.w3.org/2000/svg" xmlns:xlink="http://www.w3.org/1999/xlink" width="895pt" height="325pt" viewBox="0.00 0.00 895.47 324.80">
<g id="graph0" class="graph" transform="scale(1 1) rotate(0) translate(14.4 310.4)">
<title>computational_graph</title>
<polygon fill="#ffffff" stroke="transparent" points="-14.4,14.4 -14.4,-310.4 881.0676,-310.4 881.0676,14.4 -14.4,14.4"/>
<!-- input -->
<g id="node1" class="node">
<title>input</title>
<path fill="#cfe8ff" stroke="transparent" d="M46.6712,-296C46.6712,-296 16.6712,-296 16.6712,-296 10.6712,-296 4.6712,-290 4.6712,-284 4.6712,-284 4.6712,-272 4.6712,-272 4.6712,-266 10.6712,-260 16.6712,-260 16.6712,-260 46.6712,-260 46.6712,-260 52.6712,-260 58.6712,-266 58.6712,-272 58.6712,-272 58.6712,-284 58.6712,-284 58.6712,-290 52.6712,-296 46.6712,-296"/>
<text text-anchor="middle" x="31.6712" y="-274.4" font-family="Helvetica,sans-Serif" font-size="12.00" fill="#000000">Input</text>
</g>
<!-- matmul1 -->
<g id="node9" class="node">
<title>matmul1</title>
<path fill="#ffd8a8" stroke="transparent" d="M164.8366,-231C164.8366,-231 133.177,-231 133.177,-231 127.177,-231 121.177,-225 121.177,-219 121.177,-219 121.177,-207 121.177,-207 121.177,-201 127.177,-195 133.177,-195 133.177,-195 164.8366,-195 164.8366,-195 170.8366,-195 176.8366,-201 176.8366,-207 176.8366,-207 176.8366,-219 176.8366,-219 176.8366,-225 170.8366,-231 164.8366,-231"/>
<text text-anchor="middle" x="149.0068" y="-209.4" font-family="Helvetica,sans-Serif" font-size="12.00" fill="#000000">MatMul</text>
</g>
<!-- input&#45;&gt;matmul1 -->
<g id="edge1" class="edge">
<title>input-&gt;matmul1</title>
<path fill="none" stroke="#555555" d="M58.8853,-262.9243C75.5266,-253.7056 96.9618,-241.8312 114.7518,-231.9761"/>
<polygon fill="#555555" stroke="#555555" points="116.1895,-233.9805 121.1255,-228.4453 113.815,-229.6943 116.1895,-233.9805"/>
</g>
<!-- w1 -->
<g id="node2" class="node">
<title>w1</title>
<path fill="#cfe8ff" stroke="transparent" d="M51.5145,-231C51.5145,-231 11.8279,-231 11.8279,-231 5.8279,-231 -.1721,-225 -.1721,-219 -.1721,-219 -.1721,-207 -.1721,-207 -.1721,-201 5.8279,-195 11.8279,-195 11.8279,-195 51.5145,-195 51.5145,-195 57.5145,-195 63.5145,-201 63.5145,-207 63.5145,-207 63.5145,-219 63.5145,-219 63.5145,-225 57.5145,-231 51.5145,-231"/>
<text text-anchor="middle" x="31.6712" y="-209.4" font-family="Helvetica,sans-Serif" font-size="12.00" fill="#000000">Weight 1</text>
</g>
<!-- w1&#45;&gt;matmul1 -->
<g id="edge2" class="edge">
<title>w1-&gt;matmul1</title>
<path fill="none" stroke="#555555" d="M63.4239,-213C79.0796,-213 98,-213 114.0656,-213"/>
<polygon fill="#555555" stroke="#555555" points="114.2243,-215.4501 121.2243,-213 114.2243,-210.5501 114.2243,-215.4501"/>
</g>
<!-- b1 -->
<g id="node3" class="node">
<title>b1</title>
<path fill="#cfe8ff" stroke="transparent" d="M46.6712,-166C46.6712,-166 16.6712,-166 16.6712,-166 10.6712,-166 4.6712,-160 4.6712,-154 4.6712,-154 4.6712,-142 4.6712,-142 4.6712,-136 10.6712,-130 16.6712,-130 16.6712,-130 46.6712,-130 46.6712,-130 52.6712,-130 58.6712,-136 58.6712,-142 58.6712,-142 58.6712,-154 58.6712,-154 58.6712,-160 52.6712,-166 46.6712,-166"/>
<text text-anchor="middle" x="31.6712" y="-144.4" font-family="Helvetica,sans-Serif" font-size="12.00" fill="#000000">Bias 1</text>
</g>
<!-- add1 -->
<g id="node10" class="node">
<title>add1</title>
<path fill="#ffd8a8" stroke="transparent" d="M276.6712,-198C276.6712,-198 246.6712,-198 246.6712,-198 240.6712,-198 234.6712,-192 234.6712,-186 234.6712,-186 234.6712,-174 234.6712,-174 234.6712,-168 240.6712,-162 246.6712,-162 246.6712,-162 276.6712,-162 276.6712,-162 282.6712,-162 288.6712,-168 288.6712,-174 288.6712,-174 288.6712,-186 288.6712,-186 288.6712,-192 282.6712,-198 276.6712,-198"/>
<text text-anchor="middle" x="261.6712" y="-176.4" font-family="Helvetica,sans-Serif" font-size="12.00" fill="#000000">Add</text>
</g>
<!-- b1&#45;&gt;add1 -->
<g id="edge4" class="edge">
<title>b1-&gt;add1</title>
<path fill="none" stroke="#555555" d="M58.9584,-151.7965C100.9761,-157.6424 181.4557,-168.8396 227.3602,-175.2263"/>
<polygon fill="#555555" stroke="#555555" points="227.1486,-177.6704 234.4195,-176.2085 227.8239,-172.8171 227.1486,-177.6704"/>
</g>
<!-- relu -->
<g id="node4" class="node">
<title>relu</title>
<path fill="#ffd8a8" stroke="transparent" d="M393.3424,-198C393.3424,-198 363.3424,-198 363.3424,-198 357.3424,-198 351.3424,-192 351.3424,-186 351.3424,-186 351.3424,-174 351.3424,-174 351.3424,-168 357.3424,-162 363.3424,-162 363.3424,-162 393.3424,-162 393.3424,-162 399.3424,-162 405.3424,-168 405.3424,-174 405.3424,-174 405.3424,-186 405.3424,-186 405.3424,-192 399.3424,-198 393.3424,-198"/>
<text text-anchor="middle" x="378.3424" y="-176.4" font-family="Helvetica,sans-Serif" font-size="12.00" fill="#000000">ReLU</text>
</g>
<!-- matmul2 -->
<g id="node11" class="node">
<title>matmul2</title>
<path fill="#ffd8a8" stroke="transparent" d="M511.5078,-133C511.5078,-133 479.8482,-133 479.8482,-133 473.8482,-133 467.8482,-127 467.8482,-121 467.8482,-121 467.8482,-109 467.8482,-109 467.8482,-103 473.8482,-97 479.8482,-97 479.8482,-97 511.5078,-97 511.5078,-97 517.5078,-97 523.5078,-103 523.5078,-109 523.5078,-109 523.5078,-121 523.5078,-121 523.5078,-127 517.5078,-133 511.5078,-133"/>
<text text-anchor="middle" x="495.678" y="-111.4" font-family="Helvetica,sans-Serif" font-size="12.00" fill="#000000">MatMul</text>
</g>
<!-- relu&#45;&gt;matmul2 -->
<g id="edge6" class="edge">
<title>relu-&gt;matmul2</title>
<path fill="none" stroke="#555555" d="M405.5565,-164.9243C422.1978,-155.7056 443.633,-143.8312 461.423,-133.9761"/>
<polygon fill="#555555" stroke="#555555" points="462.8607,-135.9805 467.7967,-130.4453 460.4862,-131.6943 462.8607,-135.9805"/>
</g>
<!-- w2 -->
<g id="node5" class="node">
<title>w2</title>
<path fill="#cfe8ff" stroke="transparent" d="M398.1857,-133C398.1857,-133 358.4991,-133 358.4991,-133 352.4991,-133 346.4991,-127 346.4991,-121 346.4991,-121 346.4991,-109 346.4991,-109 346.4991,-103 352.4991,-97 358.4991,-97 358.4991,-97 398.1857,-97 398.1857,-97 404.1857,-97 410.1857,-103 410.1857,-109 410.1857,-109 410.1857,-121 410.1857,-121 410.1857,-127 404.1857,-133 398.1857,-133"/>
<text text-anchor="middle" x="378.3424" y="-111.4" font-family="Helvetica,sans-Serif" font-size="12.00" fill="#000000">Weight 2</text>
</g>
<!-- w2&#45;&gt;matmul2 -->
<g id="edge7" class="edge">
<title>w2-&gt;matmul2</title>
<path fill="none" stroke="#555555" d="M410.0951,-115C425.7508,-115 444.6712,-115 460.7368,-115"/>
<polygon fill="#555555" stroke="#555555" points="460.8955,-117.4501 467.8955,-115 460.8955,-112.5501 460.8955,-117.4501"/>
</g>
<!-- b2 -->
<g id="node6" class="node">
<title>b2</title>
<path fill="#cfe8ff" stroke="transparent" d="M393.3424,-68C393.3424,-68 363.3424,-68 363.3424,-68 357.3424,-68 351.3424,-62 351.3424,-56 351.3424,-56 351.3424,-44 351.3424,-44 351.3424,-38 357.3424,-32 363.3424,-32 363.3424,-32 393.3424,-32 393.3424,-32 399.3424,-32 405.3424,-38 405.3424,-44 405.3424,-44 405.3424,-56 405.3424,-56 405.3424,-62 399.3424,-68 393.3424,-68"/>
<text text-anchor="middle" x="378.3424" y="-46.4" font-family="Helvetica,sans-Serif" font-size="12.00" fill="#000000">Bias 2</text>
</g>
<!-- add2 -->
<g id="node12" class="node">
<title>add2</title>
<path fill="#ffd8a8" stroke="transparent" d="M623.3424,-101C623.3424,-101 593.3424,-101 593.3424,-101 587.3424,-101 581.3424,-95 581.3424,-89 581.3424,-89 581.3424,-77 581.3424,-77 581.3424,-71 587.3424,-65 593.3424,-65 593.3424,-65 623.3424,-65 623.3424,-65 629.3424,-65 635.3424,-71 635.3424,-77 635.3424,-77 635.3424,-89 635.3424,-89 635.3424,-95 629.3424,-101 623.3424,-101"/>
<text text-anchor="middle" x="608.3424" y="-79.4" font-family="Helvetica,sans-Serif" font-size="12.00" fill="#000000">Add</text>
</g>
<!-- b2&#45;&gt;add2 -->
<g id="edge9" class="edge">
<title>b2-&gt;add2</title>
<path fill="none" stroke="#555555" d="M405.6296,-53.9151C447.6473,-59.9437 528.1269,-71.4908 574.0314,-78.0771"/>
<polygon fill="#555555" stroke="#555555" points="573.8137,-80.5209 581.0907,-79.09 574.5096,-75.6706 573.8137,-80.5209"/>
</g>
<!-- label -->
<g id="node7" class="node">
<title>label</title>
<path fill="#cfe8ff" stroke="transparent" d="M623.3424,-36C623.3424,-36 593.3424,-36 593.3424,-36 587.3424,-36 581.3424,-30 581.3424,-24 581.3424,-24 581.3424,-12 581.3424,-12 581.3424,-6 587.3424,0 593.3424,0 593.3424,0 623.3424,0 623.3424,0 629.3424,0 635.3424,-6 635.3424,-12 635.3424,-12 635.3424,-24 635.3424,-24 635.3424,-30 629.3424,-36 623.3424,-36"/>
<text text-anchor="middle" x="608.3424" y="-14.4" font-family="Helvetica,sans-Serif" font-size="12.00" fill="#000000">Label</text>
</g>
<!-- criterion -->
<g id="node13" class="node">
<title>criterion</title>
<path fill="#ffd8a8" stroke="transparent" d="M742.8311,-68C742.8311,-68 705.1789,-68 705.1789,-68 699.1789,-68 693.1789,-62 693.1789,-56 693.1789,-56 693.1789,-44 693.1789,-44 693.1789,-38 699.1789,-32 705.1789,-32 705.1789,-32 742.8311,-32 742.8311,-32 748.8311,-32 754.8311,-38 754.8311,-44 754.8311,-44 754.8311,-56 754.8311,-56 754.8311,-62 748.8311,-68 742.8311,-68"/>
<text text-anchor="middle" x="724.005" y="-46.4" font-family="Helvetica,sans-Serif" font-size="12.00" fill="#000000">Criterion</text>
</g>
<!-- label&#45;&gt;criterion -->
<g id="edge11" class="edge">
<title>label-&gt;criterion</title>
<path fill="none" stroke="#555555" d="M635.4601,-25.5026C650.5335,-29.6729 669.5286,-34.9282 686.0566,-39.5009"/>
<polygon fill="#555555" stroke="#555555" points="685.5705,-41.9084 692.9703,-41.4137 686.8771,-37.1858 685.5705,-41.9084"/>
</g>
<!-- loss -->
<g id="node8" class="node">
<title>loss</title>
<path fill="#cfe8ff" stroke="transparent" d="M854.6676,-68C854.6676,-68 824.6676,-68 824.6676,-68 818.6676,-68 812.6676,-62 812.6676,-56 812.6676,-56 812.6676,-44 812.6676,-44 812.6676,-38 818.6676,-32 824.6676,-32 824.6676,-32 854.6676,-32 854.6676,-32 860.6676,-32 866.6676,-38 866.6676,-44 866.6676,-44 866.6676,-56 866.6676,-56 866.6676,-62 860.6676,-68 854.6676,-68"/>
<text text-anchor="middle" x="839.6676" y="-46.4" font-family="Helvetica,sans-Serif" font-size="12.00" fill="#000000">Loss</text>
</g>
<!-- matmul1&#45;&gt;add1 -->
<g id="edge3" class="edge">
<title>matmul1-&gt;add1</title>
<path fill="none" stroke="#555555" d="M176.8564,-204.8427C192.2511,-200.3335 211.497,-194.6963 227.7622,-189.9321"/>
<polygon fill="#555555" stroke="#555555" points="228.5016,-192.2686 234.5307,-187.9496 227.1242,-187.5661 228.5016,-192.2686"/>
</g>
<!-- add1&#45;&gt;relu -->
<g id="edge5" class="edge">
<title>add1-&gt;relu</title>
<path fill="none" stroke="#555555" d="M288.7312,-180C305.1058,-180 326.1482,-180 343.727,-180"/>
<polygon fill="#555555" stroke="#555555" points="344.0251,-182.4501 351.025,-180 344.025,-177.5501 344.0251,-182.4501"/>
</g>
<!-- matmul2&#45;&gt;add2 -->
<g id="edge8" class="edge">
<title>matmul2-&gt;add2</title>
<path fill="none" stroke="#555555" d="M523.5276,-107.0899C538.9223,-102.7174 558.1682,-97.251 574.4334,-92.6311"/>
<polygon fill="#555555" stroke="#555555" points="575.1376,-94.9781 581.2019,-90.7087 573.7988,-90.2646 575.1376,-94.9781"/>
</g>
<!-- add2&#45;&gt;criterion -->
<g id="edge10" class="edge">
<title>add2-&gt;criterion</title>
<path fill="none" stroke="#555555" d="M635.4601,-75.263C650.5335,-70.9623 669.5286,-65.5428 686.0566,-60.8272"/>
<polygon fill="#555555" stroke="#555555" points="686.9112,-63.1312 692.9703,-58.8546 685.5667,-58.4192 686.9112,-63.1312"/>
</g>
<!-- criterion&#45;&gt;loss -->
<g id="edge12" class="edge">
<title>criterion-&gt;loss</title>
<path fill="none" stroke="#555555" d="M754.6968,-50C770.2506,-50 789.1916,-50 805.2401,-50"/>
<polygon fill="#555555" stroke="#555555" points="805.3877,-52.4501 812.3876,-50 805.3876,-47.5501 805.3877,-52.4501"/>
</g>
</g>
</svg>